<mxfile host="Electron" modified="2024-10-19T11:29:41.552Z" agent="Mozilla/5.0 (Windows NT 10.0; Win64; x64) AppleWebKit/537.36 (KHTML, like Gecko) draw.io/22.1.16 Chrome/120.0.6099.109 Electron/28.1.0 Safari/537.36" etag="t_0R1HFqJOTuYIRmjKGX" version="22.1.16" type="device">
  <diagram name="Page-1" id="bsGzOjIgyUiZZBBjQWvk">
    <mxGraphModel dx="1671" dy="967" grid="1" gridSize="10" guides="1" tooltips="1" connect="1" arrows="1" fold="1" page="1" pageScale="1" pageWidth="827" pageHeight="1169" math="0" shadow="0">
      <root>
        <mxCell id="0" />
        <mxCell id="1" parent="0" />
        <mxCell id="sfiVu9NxVpDgusetAvlY-17" style="edgeStyle=orthogonalEdgeStyle;rounded=0;orthogonalLoop=1;jettySize=auto;html=1;entryX=0;entryY=0.5;entryDx=0;entryDy=0;fontStyle=1;strokeWidth=3;fillColor=#e51400;strokeColor=#B20000;movable=0;resizable=0;rotatable=0;deletable=0;editable=0;locked=1;connectable=0;" edge="1" parent="1" source="sfiVu9NxVpDgusetAvlY-4" target="sfiVu9NxVpDgusetAvlY-12">
          <mxGeometry relative="1" as="geometry" />
        </mxCell>
        <mxCell id="sfiVu9NxVpDgusetAvlY-22" style="edgeStyle=orthogonalEdgeStyle;rounded=0;orthogonalLoop=1;jettySize=auto;html=1;entryX=0.5;entryY=0;entryDx=0;entryDy=0;fontStyle=1;strokeWidth=3;fillColor=#e51400;strokeColor=#B20000;movable=0;resizable=0;rotatable=0;deletable=0;editable=0;locked=1;connectable=0;" edge="1" parent="1" source="sfiVu9NxVpDgusetAvlY-4" target="sfiVu9NxVpDgusetAvlY-21">
          <mxGeometry relative="1" as="geometry" />
        </mxCell>
        <mxCell id="sfiVu9NxVpDgusetAvlY-4" value="&lt;span&gt;&amp;nbsp; &amp;nbsp;INIT TASK (core 0)&lt;/span&gt;" style="shape=process;whiteSpace=wrap;html=1;backgroundOutline=1;size=0.10526315789473684;fontStyle=1;fillColor=#647687;strokeColor=#314354;fontColor=#ffffff;movable=0;resizable=0;rotatable=0;deletable=0;editable=0;locked=1;connectable=0;" vertex="1" parent="1">
          <mxGeometry x="114" y="250" width="190" height="90" as="geometry" />
        </mxCell>
        <mxCell id="sfiVu9NxVpDgusetAvlY-7" value="" style="verticalLabelPosition=bottom;html=1;verticalAlign=top;align=center;strokeColor=none;fillColor=#00BEF2;shape=mxgraph.azure.startup_task;pointerEvents=1;fontStyle=1;movable=0;resizable=0;rotatable=0;deletable=0;editable=0;locked=1;connectable=0;" vertex="1" parent="1">
          <mxGeometry x="114" y="250" width="20" height="20" as="geometry" />
        </mxCell>
        <mxCell id="sfiVu9NxVpDgusetAvlY-8" value="COMMUNICATION SETUP TASK (core 0)" style="shape=process;whiteSpace=wrap;html=1;backgroundOutline=1;fontStyle=1;fillColor=#647687;strokeColor=#314354;fontColor=#ffffff;movable=0;resizable=0;rotatable=0;deletable=0;editable=0;locked=1;connectable=0;" vertex="1" parent="1">
          <mxGeometry x="354" y="250" width="190" height="90" as="geometry" />
        </mxCell>
        <mxCell id="sfiVu9NxVpDgusetAvlY-38" style="edgeStyle=orthogonalEdgeStyle;rounded=0;orthogonalLoop=1;jettySize=auto;html=1;entryX=0;entryY=0.5;entryDx=0;entryDy=0;strokeWidth=3;fillColor=#e51400;strokeColor=#B20000;movable=0;resizable=0;rotatable=0;deletable=0;editable=0;locked=1;connectable=0;" edge="1" parent="1" source="sfiVu9NxVpDgusetAvlY-12" target="sfiVu9NxVpDgusetAvlY-37">
          <mxGeometry relative="1" as="geometry" />
        </mxCell>
        <mxCell id="sfiVu9NxVpDgusetAvlY-12" value="SENSOR CALIBRATION TASK(core 1)" style="shape=process;whiteSpace=wrap;html=1;backgroundOutline=1;fontStyle=1;fillColor=#647687;strokeColor=#314354;fontColor=#ffffff;movable=0;resizable=0;rotatable=0;deletable=0;editable=0;locked=1;connectable=0;" vertex="1" parent="1">
          <mxGeometry x="354" y="350" width="190" height="80" as="geometry" />
        </mxCell>
        <mxCell id="sfiVu9NxVpDgusetAvlY-13" value="" style="sketch=0;outlineConnect=0;fontColor=#232F3E;gradientColor=none;fillColor=#ED7100;strokeColor=none;dashed=0;verticalLabelPosition=bottom;verticalAlign=top;align=center;html=1;fontSize=12;fontStyle=1;aspect=fixed;pointerEvents=1;shape=mxgraph.aws4.ecs_task;movable=0;resizable=0;rotatable=0;deletable=0;editable=0;locked=1;connectable=0;" vertex="1" parent="1">
          <mxGeometry x="354" y="250" width="13.88" height="18" as="geometry" />
        </mxCell>
        <mxCell id="sfiVu9NxVpDgusetAvlY-14" value="" style="sketch=0;outlineConnect=0;fontColor=#232F3E;gradientColor=none;fillColor=#ED7100;strokeColor=none;dashed=0;verticalLabelPosition=bottom;verticalAlign=top;align=center;html=1;fontSize=12;fontStyle=1;aspect=fixed;pointerEvents=1;shape=mxgraph.aws4.ecs_task;movable=0;resizable=0;rotatable=0;deletable=0;editable=0;locked=1;connectable=0;" vertex="1" parent="1">
          <mxGeometry x="354" y="350" width="13.88" height="18" as="geometry" />
        </mxCell>
        <mxCell id="sfiVu9NxVpDgusetAvlY-16" style="edgeStyle=orthogonalEdgeStyle;rounded=0;orthogonalLoop=1;jettySize=auto;html=1;entryX=-0.013;entryY=0.507;entryDx=0;entryDy=0;entryPerimeter=0;fontStyle=1;strokeWidth=3;fillColor=#e51400;strokeColor=#B20000;movable=0;resizable=0;rotatable=0;deletable=0;editable=0;locked=1;connectable=0;" edge="1" parent="1" source="sfiVu9NxVpDgusetAvlY-4" target="sfiVu9NxVpDgusetAvlY-8">
          <mxGeometry relative="1" as="geometry" />
        </mxCell>
        <mxCell id="sfiVu9NxVpDgusetAvlY-30" value="" style="edgeStyle=orthogonalEdgeStyle;rounded=0;orthogonalLoop=1;jettySize=auto;html=1;entryX=-0.026;entryY=0.496;entryDx=0;entryDy=0;entryPerimeter=0;strokeWidth=3;fillColor=#e51400;strokeColor=#B20000;movable=0;resizable=0;rotatable=0;deletable=0;editable=0;locked=1;connectable=0;" edge="1" parent="1" source="sfiVu9NxVpDgusetAvlY-19" target="sfiVu9NxVpDgusetAvlY-33">
          <mxGeometry relative="1" as="geometry">
            <mxPoint x="594" y="530" as="targetPoint" />
          </mxGeometry>
        </mxCell>
        <mxCell id="sfiVu9NxVpDgusetAvlY-19" value="SENSOR MEASUREMENT TASK(core 1)" style="shape=process;whiteSpace=wrap;html=1;backgroundOutline=1;fontStyle=1;fillColor=#647687;strokeColor=#314354;fontColor=#ffffff;movable=0;resizable=0;rotatable=0;deletable=0;editable=0;locked=1;connectable=0;" vertex="1" parent="1">
          <mxGeometry x="354" y="490" width="190" height="80" as="geometry" />
        </mxCell>
        <mxCell id="sfiVu9NxVpDgusetAvlY-20" value="" style="sketch=0;outlineConnect=0;fontColor=#232F3E;gradientColor=none;fillColor=#ED7100;strokeColor=none;dashed=0;verticalLabelPosition=bottom;verticalAlign=top;align=center;html=1;fontSize=12;fontStyle=1;aspect=fixed;pointerEvents=1;shape=mxgraph.aws4.ecs_task;movable=0;resizable=0;rotatable=0;deletable=0;editable=0;locked=1;connectable=0;" vertex="1" parent="1">
          <mxGeometry x="354" y="490" width="13.88" height="18" as="geometry" />
        </mxCell>
        <mxCell id="sfiVu9NxVpDgusetAvlY-23" style="edgeStyle=orthogonalEdgeStyle;rounded=0;orthogonalLoop=1;jettySize=auto;html=1;entryX=0;entryY=0.5;entryDx=0;entryDy=0;fontStyle=1;strokeWidth=3;fillColor=#e51400;strokeColor=#B20000;movable=0;resizable=0;rotatable=0;deletable=0;editable=0;locked=1;connectable=0;" edge="1" parent="1" source="sfiVu9NxVpDgusetAvlY-21" target="sfiVu9NxVpDgusetAvlY-19">
          <mxGeometry relative="1" as="geometry" />
        </mxCell>
        <mxCell id="sfiVu9NxVpDgusetAvlY-27" style="edgeStyle=orthogonalEdgeStyle;rounded=0;orthogonalLoop=1;jettySize=auto;html=1;entryX=0;entryY=0.5;entryDx=0;entryDy=0;fontStyle=1;strokeWidth=3;fillColor=#e51400;strokeColor=#B20000;movable=0;resizable=0;rotatable=0;deletable=0;editable=0;locked=1;connectable=0;" edge="1" parent="1" source="sfiVu9NxVpDgusetAvlY-21" target="sfiVu9NxVpDgusetAvlY-26">
          <mxGeometry relative="1" as="geometry">
            <mxPoint x="324" y="640" as="targetPoint" />
          </mxGeometry>
        </mxCell>
        <mxCell id="sfiVu9NxVpDgusetAvlY-49" style="edgeStyle=orthogonalEdgeStyle;rounded=0;orthogonalLoop=1;jettySize=auto;html=1;entryX=0;entryY=0.5;entryDx=0;entryDy=0;strokeWidth=3;fillColor=#e51400;strokeColor=#B20000;movable=0;resizable=0;rotatable=0;deletable=0;editable=0;locked=1;connectable=0;" edge="1" parent="1" source="sfiVu9NxVpDgusetAvlY-21" target="sfiVu9NxVpDgusetAvlY-48">
          <mxGeometry relative="1" as="geometry">
            <Array as="points">
              <mxPoint x="150" y="610" />
            </Array>
          </mxGeometry>
        </mxCell>
        <mxCell id="sfiVu9NxVpDgusetAvlY-21" value="SPMON PROC TASK&amp;nbsp; &amp;nbsp; (core 0)" style="shape=process;whiteSpace=wrap;html=1;backgroundOutline=1;fontStyle=1;fillColor=#647687;strokeColor=#314354;fontColor=#ffffff;movable=0;resizable=0;rotatable=0;deletable=0;editable=0;locked=1;connectable=0;" vertex="1" parent="1">
          <mxGeometry x="114" y="490" width="190" height="80" as="geometry" />
        </mxCell>
        <mxCell id="sfiVu9NxVpDgusetAvlY-24" value="" style="sketch=0;outlineConnect=0;fontColor=#232F3E;gradientColor=none;fillColor=#ED7100;strokeColor=none;dashed=0;verticalLabelPosition=bottom;verticalAlign=top;align=center;html=1;fontSize=12;fontStyle=1;aspect=fixed;pointerEvents=1;shape=mxgraph.aws4.ecs_task;movable=0;resizable=0;rotatable=0;deletable=0;editable=0;locked=1;connectable=0;" vertex="1" parent="1">
          <mxGeometry x="114" y="490" width="13.88" height="18" as="geometry" />
        </mxCell>
        <mxCell id="sfiVu9NxVpDgusetAvlY-32" value="" style="edgeStyle=orthogonalEdgeStyle;rounded=0;orthogonalLoop=1;jettySize=auto;html=1;entryX=0;entryY=0.5;entryDx=0;entryDy=0;strokeWidth=3;fillColor=#e51400;strokeColor=#B20000;movable=0;resizable=0;rotatable=0;deletable=0;editable=0;locked=1;connectable=0;" edge="1" parent="1" source="sfiVu9NxVpDgusetAvlY-26" target="sfiVu9NxVpDgusetAvlY-34">
          <mxGeometry relative="1" as="geometry">
            <mxPoint x="594" y="640" as="targetPoint" />
          </mxGeometry>
        </mxCell>
        <mxCell id="sfiVu9NxVpDgusetAvlY-26" value="COMUNICATION TASK(core 0)" style="shape=process;whiteSpace=wrap;html=1;backgroundOutline=1;fontStyle=1;fillColor=#647687;strokeColor=#314354;fontColor=#ffffff;movable=0;resizable=0;rotatable=0;deletable=0;editable=0;locked=1;connectable=0;" vertex="1" parent="1">
          <mxGeometry x="354" y="600" width="190" height="80" as="geometry" />
        </mxCell>
        <mxCell id="sfiVu9NxVpDgusetAvlY-28" value="" style="sketch=0;outlineConnect=0;fontColor=#232F3E;gradientColor=none;fillColor=#ED7100;strokeColor=none;dashed=0;verticalLabelPosition=bottom;verticalAlign=top;align=center;html=1;fontSize=12;fontStyle=1;aspect=fixed;pointerEvents=1;shape=mxgraph.aws4.ecs_task;movable=0;resizable=0;rotatable=0;deletable=0;editable=0;locked=1;connectable=0;" vertex="1" parent="1">
          <mxGeometry x="354" y="600" width="13.88" height="18" as="geometry" />
        </mxCell>
        <mxCell id="sfiVu9NxVpDgusetAvlY-33" value="«interface»&lt;br&gt;&lt;b&gt;SenMeas&lt;/b&gt;" style="html=1;whiteSpace=wrap;fillColor=#76608a;fontColor=#ffffff;strokeColor=#432D57;movable=0;resizable=0;rotatable=0;deletable=0;editable=0;locked=1;connectable=0;" vertex="1" parent="1">
          <mxGeometry x="604" y="470" width="110" height="50" as="geometry" />
        </mxCell>
        <mxCell id="sfiVu9NxVpDgusetAvlY-34" value="&lt;span style=&quot;white-space: pre;&quot;&gt;&#x9;&lt;/span&gt;&amp;nbsp; &amp;nbsp;«&lt;span style=&quot;text-align: center; background-color: initial;&quot;&gt;class&lt;/span&gt;»&lt;br&gt;&lt;hr size=&quot;1&quot;&gt;&lt;div style=&quot;height:2px;&quot;&gt;&lt;b&gt;&amp;nbsp; &amp;nbsp; &amp;nbsp; &amp;nbsp; &amp;nbsp; ComCtrl&lt;/b&gt;&lt;/div&gt;" style="verticalAlign=top;align=left;overflow=fill;fontSize=12;fontFamily=Helvetica;html=1;whiteSpace=wrap;fillColor=#76608a;fontColor=#ffffff;strokeColor=#432D57;movable=0;resizable=0;rotatable=0;deletable=0;editable=0;locked=1;connectable=0;" vertex="1" parent="1">
          <mxGeometry x="604" y="615" width="110" height="50" as="geometry" />
        </mxCell>
        <mxCell id="sfiVu9NxVpDgusetAvlY-35" value="&lt;span style=&quot;white-space: pre;&quot;&gt;&#x9;&lt;/span&gt;&amp;nbsp; &amp;nbsp;«&lt;span style=&quot;text-align: center; background-color: initial;&quot;&gt;class&lt;/span&gt;»&lt;br&gt;&lt;hr size=&quot;1&quot;&gt;&lt;div style=&quot;height:2px;&quot;&gt;&lt;b&gt;&amp;nbsp; &amp;nbsp; &amp;nbsp; &amp;nbsp; &amp;nbsp; ComInit&lt;/b&gt;&lt;/div&gt;" style="verticalAlign=top;align=left;overflow=fill;fontSize=12;fontFamily=Helvetica;html=1;whiteSpace=wrap;fillColor=#76608a;fontColor=#ffffff;strokeColor=#432D57;movable=0;resizable=0;rotatable=0;deletable=0;editable=0;locked=1;connectable=0;" vertex="1" parent="1">
          <mxGeometry x="604" y="268" width="110" height="50" as="geometry" />
        </mxCell>
        <mxCell id="sfiVu9NxVpDgusetAvlY-36" style="edgeStyle=orthogonalEdgeStyle;rounded=0;orthogonalLoop=1;jettySize=auto;html=1;entryX=-0.022;entryY=0.536;entryDx=0;entryDy=0;entryPerimeter=0;strokeWidth=3;fillColor=#e51400;strokeColor=#B20000;movable=0;resizable=0;rotatable=0;deletable=0;editable=0;locked=1;connectable=0;" edge="1" parent="1" source="sfiVu9NxVpDgusetAvlY-8" target="sfiVu9NxVpDgusetAvlY-35">
          <mxGeometry relative="1" as="geometry" />
        </mxCell>
        <mxCell id="sfiVu9NxVpDgusetAvlY-37" value="&lt;span style=&quot;white-space: pre;&quot;&gt;&#x9;&lt;/span&gt;&amp;nbsp; &amp;nbsp;«&lt;span style=&quot;text-align: center; background-color: initial;&quot;&gt;class&lt;/span&gt;»&lt;br&gt;&lt;hr size=&quot;1&quot;&gt;&lt;div style=&quot;height:2px;&quot;&gt;&lt;b&gt;&amp;nbsp; &amp;nbsp; &amp;nbsp; &amp;nbsp; &amp;nbsp; SenCalib&lt;/b&gt;&lt;/div&gt;" style="verticalAlign=top;align=left;overflow=fill;fontSize=12;fontFamily=Helvetica;html=1;whiteSpace=wrap;fillColor=#76608a;fontColor=#ffffff;strokeColor=#432D57;movable=0;resizable=0;rotatable=0;deletable=0;editable=0;locked=1;connectable=0;" vertex="1" parent="1">
          <mxGeometry x="604" y="365" width="110" height="50" as="geometry" />
        </mxCell>
        <mxCell id="sfiVu9NxVpDgusetAvlY-40" value="&lt;span style=&quot;white-space: pre;&quot;&gt;&#x9;&lt;/span&gt;&amp;nbsp; &amp;nbsp;«&lt;span style=&quot;text-align: center; background-color: initial;&quot;&gt;class&lt;/span&gt;»&lt;br&gt;&lt;hr size=&quot;1&quot;&gt;&lt;div style=&quot;height:2px;&quot;&gt;&lt;b&gt;&amp;nbsp; &amp;nbsp; &amp;nbsp; &amp;nbsp;StateLogic&lt;/b&gt;&lt;/div&gt;" style="verticalAlign=top;align=left;overflow=fill;fontSize=12;fontFamily=Helvetica;html=1;whiteSpace=wrap;fillColor=#76608a;fontColor=#ffffff;strokeColor=#432D57;movable=0;resizable=0;rotatable=0;deletable=0;editable=0;locked=1;connectable=0;" vertex="1" parent="1">
          <mxGeometry x="604" y="540" width="110" height="50" as="geometry" />
        </mxCell>
        <mxCell id="sfiVu9NxVpDgusetAvlY-42" style="edgeStyle=orthogonalEdgeStyle;rounded=0;orthogonalLoop=1;jettySize=auto;html=1;entryX=0;entryY=0.5;entryDx=0;entryDy=0;strokeWidth=3;fillColor=#e51400;strokeColor=#B20000;movable=0;resizable=0;rotatable=0;deletable=0;editable=0;locked=1;connectable=0;" edge="1" parent="1" source="sfiVu9NxVpDgusetAvlY-19" target="sfiVu9NxVpDgusetAvlY-40">
          <mxGeometry relative="1" as="geometry" />
        </mxCell>
        <mxCell id="sfiVu9NxVpDgusetAvlY-47" style="edgeStyle=orthogonalEdgeStyle;rounded=0;orthogonalLoop=1;jettySize=auto;html=1;entryX=0;entryY=0.5;entryDx=0;entryDy=0;strokeWidth=3;fillColor=#e51400;strokeColor=#B20000;movable=0;resizable=0;rotatable=0;deletable=0;editable=0;locked=1;connectable=0;" edge="1" parent="1" source="sfiVu9NxVpDgusetAvlY-43" target="sfiVu9NxVpDgusetAvlY-46">
          <mxGeometry relative="1" as="geometry" />
        </mxCell>
        <mxCell id="sfiVu9NxVpDgusetAvlY-43" value="DIAG_DBG TASK&lt;br&gt;(core 0)" style="shape=process;whiteSpace=wrap;html=1;backgroundOutline=1;fontStyle=1;fillColor=#647687;strokeColor=#314354;fontColor=#ffffff;movable=0;resizable=0;rotatable=0;deletable=0;editable=0;locked=1;connectable=0;" vertex="1" parent="1">
          <mxGeometry x="354" y="710" width="190" height="80" as="geometry" />
        </mxCell>
        <mxCell id="sfiVu9NxVpDgusetAvlY-44" style="edgeStyle=orthogonalEdgeStyle;rounded=0;orthogonalLoop=1;jettySize=auto;html=1;entryX=-0.003;entryY=0.57;entryDx=0;entryDy=0;entryPerimeter=0;strokeWidth=3;fillColor=#e51400;strokeColor=#B20000;movable=0;resizable=0;rotatable=0;deletable=0;editable=0;locked=1;connectable=0;" edge="1" parent="1" source="sfiVu9NxVpDgusetAvlY-21" target="sfiVu9NxVpDgusetAvlY-43">
          <mxGeometry relative="1" as="geometry" />
        </mxCell>
        <mxCell id="sfiVu9NxVpDgusetAvlY-45" value="" style="sketch=0;outlineConnect=0;fontColor=#232F3E;gradientColor=none;fillColor=#ED7100;strokeColor=none;dashed=0;verticalLabelPosition=bottom;verticalAlign=top;align=center;html=1;fontSize=12;fontStyle=1;aspect=fixed;pointerEvents=1;shape=mxgraph.aws4.ecs_task;movable=0;resizable=0;rotatable=0;deletable=0;editable=0;locked=1;connectable=0;" vertex="1" parent="1">
          <mxGeometry x="354" y="710" width="13.88" height="18" as="geometry" />
        </mxCell>
        <mxCell id="sfiVu9NxVpDgusetAvlY-46" value="&lt;span style=&quot;white-space: pre;&quot;&gt;&#x9;&lt;/span&gt;&amp;nbsp; &amp;nbsp;«&lt;span style=&quot;text-align: center; background-color: initial;&quot;&gt;class&lt;/span&gt;»&lt;br&gt;&lt;hr size=&quot;1&quot;&gt;&lt;div style=&quot;height:2px;&quot;&gt;&lt;b&gt;&amp;nbsp; &amp;nbsp; &amp;nbsp; &amp;nbsp; &amp;nbsp; DiagDbg&lt;/b&gt;&lt;/div&gt;" style="verticalAlign=top;align=left;overflow=fill;fontSize=12;fontFamily=Helvetica;html=1;whiteSpace=wrap;fillColor=#76608a;fontColor=#ffffff;strokeColor=#432D57;movable=0;resizable=0;rotatable=0;deletable=0;editable=0;locked=1;connectable=0;" vertex="1" parent="1">
          <mxGeometry x="604" y="725" width="110" height="50" as="geometry" />
        </mxCell>
        <mxCell id="sfiVu9NxVpDgusetAvlY-48" value="&lt;span style=&quot;white-space: pre;&quot;&gt;&#x9;&lt;/span&gt;&amp;nbsp; &amp;nbsp;«&lt;span style=&quot;text-align: center; background-color: initial;&quot;&gt;class&lt;/span&gt;»&lt;br&gt;&lt;hr size=&quot;1&quot;&gt;&lt;div style=&quot;height:2px;&quot;&gt;&lt;b&gt;&amp;nbsp; &amp;nbsp;SPMonProcess&lt;/b&gt;&lt;/div&gt;" style="verticalAlign=top;align=left;overflow=fill;fontSize=12;fontFamily=Helvetica;html=1;whiteSpace=wrap;fillColor=#76608a;fontColor=#ffffff;strokeColor=#432D57;movable=0;resizable=0;rotatable=0;deletable=0;editable=0;locked=1;connectable=0;" vertex="1" parent="1">
          <mxGeometry x="198" y="585" width="106" height="50" as="geometry" />
        </mxCell>
      </root>
    </mxGraphModel>
  </diagram>
</mxfile>
